<svg width="771" height="362" viewBox="0 0 771 362" fill="none" xmlns="http://www.w3.org/2000/svg">
<path d="M0.244871 160.961C0.16026 160.947 0.0760751 160.934 0 160.934L0.128457 161.041V161.94C0.221548 161.933 0.316704 161.918 0.41136 161.903C0.621467 161.87 0.829108 161.838 1.00622 161.897C4.09708 162.934 7.30854 163.288 10.5043 163.64C10.6067 163.651 10.7091 163.662 10.8115 163.673C17.855 164.487 24.9414 165.193 32.0064 165.878C35.176 166.187 38.3522 166.462 41.5278 166.738C44.079 166.959 46.6298 167.181 49.1763 167.419C54.5072 167.933 59.8594 168.49 65.1902 169.046C69.7075 169.517 74.2248 170.009 78.7207 170.566C85.0149 171.358 91.3305 172.171 97.4963 173.691C98.8236 174.012 100.108 174.44 101.393 174.89C101.949 175.104 102.506 175.403 102.998 175.724C103.983 176.388 104.09 177.394 103.17 178.186C102.442 178.807 101.564 179.299 100.686 179.706C98.3312 180.776 95.8264 181.375 93.3216 181.932C90.5919 182.553 87.8623 183.152 85.1326 183.751C82.403 184.351 79.6734 184.95 76.9437 185.571C72.298 186.641 67.695 187.861 63.3062 189.723C61.5079 190.494 59.7738 191.414 58.061 192.377C57.0762 192.934 56.1556 193.64 55.3207 194.39C53.0513 196.38 51.8738 198.863 51.8953 201.967C51.9238 206.704 51.9143 211.442 51.9048 216.18C51.9 218.549 51.8953 220.917 51.8953 223.286V259.204C57.2742 262.713 62.635 266.216 68.026 269.739C72.7626 272.835 77.5226 275.946 82.3388 279.089C82.1619 279.163 82.018 279.231 81.8958 279.29C81.6628 279.401 81.5084 279.474 81.354 279.474C80.6903 279.496 80.0052 279.496 79.3201 279.496H92.1655C92.8506 279.496 93.5356 279.496 94.1993 279.474C94.3538 279.474 94.5082 279.401 94.7411 279.29C94.8634 279.231 95.0073 279.163 95.1841 279.089C90.3683 275.946 85.6086 272.835 80.8723 269.74C75.481 266.217 70.1199 262.713 64.7406 259.204V223.286C64.7406 220.917 64.7454 218.549 64.7501 216.18C64.7597 211.442 64.7692 206.704 64.7406 201.967C64.7192 198.863 65.8967 196.38 68.1661 194.39C69.001 193.64 69.9216 192.934 70.9064 192.377C72.6191 191.414 74.3532 190.494 76.1516 189.723C80.5404 187.861 85.1433 186.641 89.7891 185.571C92.5187 184.95 95.2484 184.351 97.978 183.751C100.708 183.152 103.437 182.553 106.167 181.932C108.672 181.375 111.177 180.776 113.532 179.706C114.409 179.299 115.287 178.807 116.015 178.186C116.936 177.394 116.829 176.388 115.844 175.724C115.351 175.403 114.795 175.104 114.238 174.89C112.954 174.44 111.669 174.012 110.342 173.691C104.176 172.171 97.8603 171.358 91.566 170.566C87.0702 170.009 82.5529 169.517 78.0356 169.046C72.7048 168.49 67.3525 167.933 62.0217 167.419C59.4752 167.181 56.9244 166.959 54.3731 166.738C51.1976 166.462 48.0214 166.187 44.8517 165.878C37.7868 165.193 30.7004 164.487 23.6569 163.673C23.5545 163.662 23.4521 163.651 23.3496 163.64C20.1539 163.288 16.9424 162.934 13.8516 161.897C13.6745 161.838 13.4668 161.87 13.2567 161.903C13.1621 161.918 13.0669 161.933 12.9738 161.94V161.041L12.8454 160.934C12.9214 160.934 13.0056 160.947 13.0902 160.961C13.2437 160.985 13.3986 161.01 13.509 160.955C16.699 159.307 20.1886 158.558 23.6569 157.83C32.9055 155.925 42.1756 154.084 51.4457 152.329C56.2887 151.411 61.1358 150.526 65.982 149.641C76.9672 147.635 87.9477 145.629 98.8665 143.253C102.456 142.466 106.029 141.522 109.587 140.582C110.189 140.423 110.79 140.264 111.391 140.107C112.155 139.912 112.887 139.612 113.625 139.311C113.942 139.181 114.259 139.051 114.581 138.929C114.859 138.822 115.116 138.651 115.373 138.48C116.165 137.945 116.143 137.26 115.309 136.703C114.945 136.446 114.538 136.211 114.131 136.04C113.798 135.913 113.468 135.782 113.139 135.652C112.133 135.254 111.133 134.858 110.085 134.584C103.898 132.893 97.689 131.245 91.459 129.661C90.1619 129.327 88.8632 128.999 87.5644 128.671C82.1964 127.316 76.8277 125.961 71.5701 124.203C69.8624 123.622 68.1982 122.925 66.5417 122.232C66.1838 122.082 65.8261 121.932 65.4685 121.784C63.5845 120.992 62.5141 119.558 62.0431 117.567C61.3152 114.506 61.0369 111.445 61.7006 108.363C61.7244 108.244 61.7349 108.118 61.747 107.975C61.7566 107.861 61.7672 107.735 61.7862 107.592C60.5789 107.272 59.3616 107.308 58.148 107.344C57.5754 107.361 57.0036 107.378 56.434 107.357C55.2771 107.328 54.1297 107.338 52.9855 107.347C52.4146 107.352 51.8445 107.357 51.2744 107.357C51.146 106.807 51.4578 106.649 51.7382 106.508C51.785 106.484 51.831 106.461 51.8739 106.437C52.2298 106.211 52.5792 105.968 52.9284 105.724C53.8393 105.09 54.7488 104.456 55.7703 104.146C56.7187 103.856 57.7655 103.893 58.8092 103.93C59.2261 103.945 59.6426 103.96 60.0521 103.954H63.4561C64.077 103.954 64.655 103.825 65.019 103.033C63.5864 102.77 62.1638 102.806 60.758 102.842C60.1049 102.859 59.4555 102.875 58.8104 102.862C57.3974 102.833 55.9844 102.843 54.5714 102.852C53.8649 102.857 53.1584 102.862 52.4519 102.862H50.7898C51.2499 102.895 51.7112 102.948 52.1736 103.033C51.8096 103.825 51.2316 103.954 50.6107 103.954H47.2067C46.7972 103.96 46.3808 103.945 45.9638 103.93C44.9201 103.893 43.8733 103.856 42.9249 104.146C41.9035 104.456 40.9939 105.09 40.083 105.724C39.7338 105.968 39.3844 106.211 39.0285 106.437C38.9856 106.461 38.9397 106.484 38.8928 106.508C38.6124 106.649 38.3006 106.807 38.429 107.357C38.9992 107.357 39.5693 107.352 40.1402 107.347C41.2844 107.338 42.4317 107.328 43.5886 107.357C44.1582 107.378 44.73 107.361 45.3026 107.344C46.5163 107.308 47.7335 107.272 48.9408 107.592C48.9218 107.735 48.9113 107.861 48.9016 107.975C48.8896 108.118 48.879 108.244 48.8552 108.363C48.1915 111.445 48.4698 114.506 49.1977 117.567C49.6687 119.558 50.7392 120.992 52.6232 121.784C52.9808 121.932 53.3384 122.082 53.6964 122.232C55.3529 122.925 57.0171 123.622 58.7247 124.203C63.9824 125.961 69.351 127.316 74.719 128.671C76.0178 128.999 77.3165 129.327 78.6136 129.661C84.8436 131.245 91.0522 132.893 97.2394 134.584C98.2878 134.858 99.2876 135.254 100.294 135.652C100.623 135.782 100.953 135.913 101.286 136.04C101.692 136.211 102.099 136.446 102.463 136.703C103.298 137.26 103.32 137.945 102.527 138.48C102.27 138.651 102.014 138.822 101.735 138.929C101.414 139.051 101.096 139.181 100.78 139.311C100.042 139.612 99.3093 139.912 98.5453 140.107C97.9446 140.264 97.3435 140.423 96.7419 140.582C93.184 141.522 89.6104 142.466 86.0211 143.253C75.1024 145.629 64.1218 147.635 53.1366 149.641C48.2904 150.526 43.4434 151.411 38.6003 152.329C29.3302 154.084 20.0602 155.925 10.8115 157.83C7.34326 158.558 3.85361 159.307 0.66368 160.955C0.553268 161.01 0.39837 160.985 0.244871 160.961Z" fill="#FFFFFF"/>
<path d="M47.0361 102.862H45.965C46.3208 102.869 46.6778 102.868 47.0361 102.862Z" fill="#FFFFFF"/>
<path d="M39.4139 102.862C39.6014 102.674 39.738 102.524 39.8481 102.403C40.0144 102.22 40.12 102.104 40.2488 102.027C41.0249 101.535 41.8027 101.045 42.5808 100.555C44.6142 99.2741 46.6496 97.9918 48.6625 96.6759C49.4055 96.2048 50.1638 95.9638 50.9893 95.9268C48.0062 95.9267 45.0231 95.9267 42.04 95.9267H42.0043C41.6261 95.9267 41.2479 95.9291 40.8697 95.9315C40.1132 95.9362 39.3568 95.941 38.6003 95.9267C37.5941 95.8839 36.6949 96.1193 35.8171 96.6759C33.8042 97.9918 31.7688 99.2741 29.7354 100.555C28.9573 101.045 28.1796 101.535 27.4034 102.027C27.2746 102.104 27.169 102.22 27.0027 102.403C26.8927 102.524 26.756 102.674 26.5685 102.862H39.4139Z" fill="#FFFFFF"/>
<path d="M51.4533 95.9268C52.2072 95.9409 52.9611 95.9362 53.715 95.9315C54.0079 95.9296 54.3008 95.9278 54.5937 95.927C53.5469 95.927 52.5001 95.9269 51.4533 95.9268Z" fill="#FFFFFF"/>
<path d="M92.6795 95.9359C96.7899 95.9389 100.9 95.9428 105.011 95.9481C106.766 95.9481 108.222 95.5414 109.635 94.514C110.888 93.5915 112.194 92.74 113.497 91.8909C114.219 91.4198 114.941 90.9496 115.651 90.4684C116.002 90.2417 116.312 89.9752 116.603 89.7264L116.636 89.6979C116.435 89.1867 116.094 89.2049 115.786 89.2213C115.732 89.2242 115.68 89.2269 115.63 89.2269H103.273C103.473 89.2587 103.661 89.3682 103.791 89.6979L103.757 89.7264C103.467 89.9752 103.156 90.2417 102.806 90.4684C102.095 90.9496 101.374 91.4198 100.651 91.8909C99.3491 92.74 98.0429 93.5915 96.7898 94.514C95.517 95.4395 94.2095 95.8613 92.6795 95.9359Z" fill="#FFFFFF"/>
<path d="M89.5322 89.2269C89.0468 89.2269 88.5615 89.2079 88.0762 89.1889C87.8336 89.1794 87.591 89.1699 87.3485 89.1627C87.2978 88.4869 87.6873 88.2912 88.0432 88.1124C88.1381 88.0647 88.2307 88.0182 88.3119 87.9641C91.7052 85.6951 95.1039 83.4316 98.5025 81.168C101.901 78.9044 105.3 76.6408 108.693 74.3719C118.648 67.7578 128.603 61.1436 138.537 54.5295C138.658 54.4476 138.782 54.3701 138.908 54.2915C139.407 53.9796 139.934 53.6508 140.378 52.9669C140.149 52.9422 139.938 52.9174 139.74 52.8942C139.254 52.8372 138.847 52.7895 138.452 52.7743H125.606C126.002 52.7895 126.408 52.8372 126.895 52.8942C127.093 52.9174 127.304 52.9422 127.533 52.9669C127.088 53.6508 126.562 53.9796 126.063 54.2915C125.937 54.3701 125.813 54.4476 125.692 54.5295C115.758 61.1436 105.803 67.7578 95.8478 74.3719C92.4545 76.6408 89.0558 78.9044 85.6572 81.168C82.2585 83.4316 78.8598 85.6951 75.4665 87.9641C75.3853 88.0182 75.2928 88.0647 75.1978 88.1124C74.8419 88.2912 74.4524 88.4869 74.5031 89.1627C74.7457 89.1699 74.9883 89.1794 75.2308 89.1889C75.7162 89.2079 76.2015 89.2269 76.6868 89.2269H89.5322Z" fill="#FFFFFF"/>
<path d="M97.4272 52.7743C97.2097 52.7444 96.9965 52.6916 96.7898 52.6031C96.6036 52.148 96.8973 51.9727 97.1105 51.8456C97.1179 51.8411 97.1252 51.8368 97.1323 51.8325C98.5667 50.9228 100.006 50.0131 101.446 49.1033C102.886 48.1936 104.326 47.2839 105.76 46.3742C106.257 46.0546 106.755 45.8528 107.326 45.8177C103.771 45.8177 100.216 45.8177 96.6613 45.8177C96.4528 45.8177 96.2466 45.8225 96.0421 45.8273C95.6377 45.8368 95.2397 45.8461 94.8416 45.8177C94.1137 45.7749 93.5142 45.9889 92.9148 46.3742C91.4804 47.2839 90.0406 48.1936 88.6009 49.1033C87.1611 50.0131 85.7214 50.9228 84.287 51.8325C84.2798 51.8368 84.2725 51.8411 84.2651 51.8456C84.0519 51.9727 83.7582 52.148 83.9444 52.6031C84.5126 52.8465 85.1301 52.8192 85.7501 52.7918C85.9477 52.7831 86.1456 52.7743 86.3422 52.7743H97.4272Z" fill="#FFFFFF"/>
<path d="M107.688 45.8177C108.086 45.8461 108.483 45.8368 108.887 45.8273C109.074 45.8229 109.262 45.8185 109.452 45.8178C108.864 45.8178 108.276 45.8178 107.688 45.8177Z" fill="#FFFFFF"/>
<path d="M172.326 45.8302C176.427 45.8327 180.529 45.8356 184.631 45.8391C186.515 45.8391 188.206 45.5394 189.726 44.405C189.952 44.2352 190.2 44.0912 190.457 43.9412C190.979 43.6372 191.543 43.3089 192.06 42.6926C190.963 42.525 190.007 42.5417 189.099 42.5576C188.731 42.564 188.371 42.5703 188.013 42.5641C187.157 42.5499 186.301 42.5546 185.444 42.5594C185.016 42.5618 184.588 42.5641 184.16 42.5641H177.875C178.3 42.5828 178.744 42.6208 179.214 42.6926C178.698 43.3089 178.134 43.6372 177.612 43.9412C177.354 44.0912 177.107 44.2352 176.881 44.405C175.508 45.4297 173.995 45.7733 172.326 45.8302Z" fill="#FFFFFF"/>
<path d="M175.841 42.5641H175.168C175.391 42.568 175.615 42.567 175.841 42.5641Z" fill="#FFFFFF"/>
<path d="M126.998 42.5641C126.741 42.031 127.067 41.8621 127.372 41.7047C127.397 41.6915 127.423 41.6784 127.447 41.6651C127.829 41.4297 128.203 41.1716 128.578 40.9133C129.464 40.3026 130.351 39.6907 131.344 39.3748C131.703 39.2649 132.075 39.1987 132.456 39.1607H122.759C122.417 39.1607 122.069 39.1495 121.719 39.1381C120.622 39.1026 119.505 39.0665 118.498 39.3748C117.505 39.6907 116.618 40.3026 115.733 40.9133C115.358 41.1716 114.984 41.4297 114.602 41.6651C114.577 41.6784 114.552 41.6915 114.526 41.7047C114.222 41.8621 113.896 42.031 114.152 42.5641H126.998Z" fill="#FFFFFF"/>
<path d="M192.373 39.1607H203.471C203.667 39.1607 203.863 39.1643 204.059 39.1678C204.546 39.1765 205.031 39.1852 205.504 39.1393C206.018 39.0751 206.575 38.9467 206.982 38.6898C209.532 37.0056 212.059 35.2878 214.589 33.5689C215.563 32.9066 216.538 32.2442 217.515 31.5834C217.586 31.5406 217.619 31.4407 217.653 31.3408C217.669 31.2909 217.686 31.2409 217.707 31.1981C217.61 30.8474 217.318 30.8514 217.056 30.8549C217.03 30.8553 217.005 30.8556 216.98 30.8556H204.37C204.582 30.8641 204.784 30.9179 204.862 31.1981C204.841 31.2409 204.824 31.2909 204.807 31.3408C204.774 31.4407 204.741 31.5406 204.669 31.5834C203.693 32.2442 202.718 32.9066 201.744 33.5689C199.214 35.2878 196.686 37.0056 194.136 38.6898C193.729 38.9467 193.173 39.0751 192.659 39.1393C192.564 39.1485 192.469 39.1555 192.373 39.1607Z" fill="#FFFFFF"/>
<path d="M177.266 30.8556C176.784 30.8556 176.292 30.8368 175.798 30.8179C175.546 30.8083 175.292 30.7986 175.039 30.7914C175.091 30.1741 175.486 29.9689 175.85 29.7797C175.94 29.7327 176.029 29.6866 176.11 29.6355C184.095 24.3057 192.102 18.9759 200.088 13.6674C202.385 12.1366 204.684 10.609 206.985 9.08083C209.084 7.68673 211.183 6.29223 213.281 4.89455C211.592 3.77793 209.906 2.6585 208.223 1.53082C208.124 1.46005 208.012 1.39864 207.898 1.33673C207.497 1.11777 207.084 0.892591 207.217 0.225117C207.26 -0.0103374 206.532 -0.0959592 206.532 0.139495C206.549 0.92365 206.028 1.22548 205.521 1.51848C205.406 1.58539 205.291 1.65184 205.183 1.72347C201.507 4.18715 197.822 6.63461 194.14 9.08083C191.839 10.609 189.539 12.1366 187.243 13.6674C179.257 18.9759 171.25 24.3057 163.265 29.6355C163.184 29.6866 163.095 29.7327 163.005 29.7797C162.64 29.9689 162.246 30.1741 162.194 30.7914C162.447 30.7986 162.7 30.8083 162.952 30.8179C163.447 30.8368 163.939 30.8556 164.421 30.8556H177.266Z" fill="#FFFFFF"/>
<path d="M274.703 46.2886H273.692C273.795 46.2886 273.904 46.302 274.015 46.3157C274.243 46.3439 274.481 46.3733 274.703 46.2886Z" fill="#FFFFFF"/>
<path d="M295.113 60.4605C295.342 60.4607 295.572 60.461 295.802 60.4612C295.733 60.4595 295.663 60.4587 295.593 60.4587C295.433 60.4593 295.273 60.4599 295.113 60.4605Z" fill="#FFFFFF"/>
<path d="M319.227 65.6214C319.45 65.6371 319.679 65.6424 319.914 65.6387C320.993 65.6335 322.073 65.6295 323.153 65.6266C321.844 65.6246 320.536 65.6227 319.227 65.6214Z" fill="#FFFFFF"/>
<path d="M344.935 72.1458H344.77C344.787 72.1458 344.805 72.146 344.824 72.1461C344.861 72.1465 344.898 72.1469 344.935 72.1458Z" fill="#FFFFFF"/>
<path d="M289.727 80.4723C290.125 80.5292 290.523 80.5105 290.928 80.4916C291.132 80.482 291.338 80.4723 291.547 80.4723H289.727Z" fill="#FFFFFF"/>
<path d="M335.435 80.4723H337.449C336.818 80.3644 336.151 80.3568 335.435 80.4723Z" fill="#FFFFFF"/>
<path d="M376.974 198.842C377.398 198.9 377.814 198.881 378.225 198.861C378.428 198.851 378.63 198.842 378.831 198.842H376.974Z" fill="#FFFFFF"/>
<path d="M416.399 205.884H412.728C412.977 205.887 413.226 205.892 413.475 205.896C414.451 205.914 415.427 205.932 416.399 205.884Z" fill="#FFFFFF"/>
<path d="M411.287 205.884H404.479C405.235 205.884 405.992 205.889 406.748 205.893C408.261 205.903 409.774 205.913 411.287 205.884Z" fill="#FFFFFF"/>
<path d="M315.225 214.767C315.027 214.767 314.827 214.762 314.626 214.756C314.22 214.745 313.81 214.734 313.402 214.767H315.225Z" fill="#FFFFFF"/>
<path d="M313.534 218.748C313.992 218.777 314.451 218.767 314.902 218.758C315.126 218.753 315.348 218.748 315.568 218.748H313.534Z" fill="#FFFFFF"/>
<path d="M324.394 284.184C323.286 284.183 322.178 284.183 321.07 284.183C315.889 284.183 310.708 284.183 305.527 284.162C305.27 284.162 305.017 284.169 304.768 284.183C305.92 284.183 307.072 284.183 308.224 284.183C313.405 284.183 318.586 284.183 323.767 284.205C323.981 284.205 324.189 284.198 324.394 284.184Z" fill="#FFFFFF"/>
<path d="M299.147 287.565C299.647 287.58 300.157 287.575 300.664 287.57C300.916 287.568 301.167 287.565 301.416 287.565H299.147Z" fill="#FFFFFF"/>
<path d="M345.135 290.819C325.581 290.818 306.027 290.815 286.473 290.797C286.319 290.797 286.167 290.801 286.018 290.807C305.116 290.819 324.215 290.819 343.314 290.819C343.513 290.819 343.714 290.821 343.916 290.824C344.323 290.828 344.733 290.833 345.133 290.819L345.135 290.819Z" fill="#FFFFFF"/>
<path d="M214.799 357.157C211.343 354.895 207.881 352.64 204.418 350.385C201.968 348.789 199.517 347.193 197.069 345.594C174.397 330.803 151.747 316.013 129.096 301.179C127.769 300.323 126.484 299.873 124.878 299.895C120.934 299.953 116.979 299.952 113.021 299.945C114.189 300.084 115.207 300.506 116.251 301.179C138.901 316.013 161.552 330.803 184.224 345.594C186.672 347.192 189.122 348.788 191.572 350.384C196.472 353.576 201.372 356.768 206.254 359.978C206.418 360.093 206.6 360.191 206.784 360.29C207.319 360.578 207.866 360.872 208.009 361.605H208.459C208.716 361.405 208.968 361.198 209.22 360.991C209.724 360.578 210.229 360.164 210.771 359.807C212.114 358.924 213.457 358.041 214.799 357.157Z" fill="#FFFFFF"/>
<path d="M107.73 299.937C107.694 299.937 107.658 299.937 107.623 299.937H94.7774C96.218 299.937 97.6586 299.94 99.0988 299.943C101.978 299.948 104.856 299.953 107.73 299.937Z" fill="#FFFFFF"/>
<path d="M93.5571 299.937C92.4438 299.937 91.5446 299.723 90.6454 299.017C88.8943 297.605 87.1153 296.24 85.3328 294.872C84.4131 294.166 83.4924 293.459 82.5743 292.745C82.538 292.717 82.4995 292.69 82.4607 292.663C82.2015 292.48 81.9255 292.285 82.1675 291.782H69.3221C69.0801 292.285 69.3562 292.48 69.6153 292.663C69.6541 292.69 69.6926 292.717 69.7289 292.745C70.6471 293.459 71.5677 294.166 72.4874 294.872C74.2699 296.24 76.049 297.605 77.8001 299.017C78.6993 299.723 79.5984 299.937 80.7117 299.937H93.5571Z" fill="#FFFFFF"/>
<path d="M140.978 291.782H153.823C154.063 291.773 154.306 291.772 154.55 291.77C154.916 291.768 155.283 291.765 155.643 291.739C155.672 291.739 155.702 291.74 155.732 291.741C155.977 291.75 156.271 291.761 156.328 291.247C156.126 291.134 155.917 291.011 155.705 290.887C155.356 290.681 154.996 290.47 154.637 290.284C153.497 289.68 152.354 289.081 151.209 288.481C148.741 287.188 146.268 285.893 143.825 284.547C142.327 283.712 140.807 283.37 139.072 283.37C135.019 283.378 130.965 283.384 126.91 283.389C128.366 283.47 129.681 283.824 130.98 284.547C133.423 285.893 135.895 287.188 138.364 288.481C139.508 289.081 140.652 289.68 141.791 290.284C142.151 290.47 142.51 290.681 142.86 290.887C143.072 291.011 143.28 291.134 143.483 291.247C143.426 291.761 143.132 291.75 142.887 291.741C142.856 291.74 142.826 291.739 142.798 291.739C142.438 291.765 142.071 291.768 141.705 291.77C141.461 291.772 141.218 291.773 140.978 291.782Z" fill="#FFFFFF"/>
<path d="M101.677 283.396C98.8836 283.395 96.0898 283.395 93.2962 283.394C88.2085 283.393 83.1213 283.391 78.0356 283.391C77.9383 283.391 77.8408 283.392 77.7429 283.393C78.6455 283.394 79.5482 283.394 80.4509 283.394C87.5257 283.396 94.6018 283.398 101.677 283.396Z" fill="#FFFFFF"/>
<path d="M59.6555 283.434C59.0531 283.376 58.5112 283.195 57.9968 282.835C57.3653 282.407 56.7337 281.995 56.1021 281.583C55.4706 281.171 54.839 280.759 54.2074 280.33C54.1952 280.323 54.1827 280.315 54.1702 280.307C53.9422 280.164 53.6856 280.003 53.9291 279.496H41.0838C40.8402 280.003 41.0969 280.164 41.3249 280.307C41.3374 280.315 41.3498 280.323 41.3621 280.33C41.9936 280.759 42.6252 281.171 43.2568 281.583C43.8883 281.995 44.5199 282.407 45.1514 282.835C45.7937 283.284 46.4788 283.456 47.2709 283.456C51.3892 283.439 55.521 283.435 59.6555 283.434Z" fill="#FFFFFF"/>
<path d="M72.5008 283.434C72.6506 283.449 72.804 283.456 72.9617 283.456C78.164 283.434 83.3878 283.434 88.6116 283.434C88.9862 283.434 89.3663 283.423 89.7463 283.413C90.0276 283.405 90.3091 283.397 90.5882 283.393C86.4034 283.392 82.219 283.391 78.0356 283.391C77.6609 283.391 77.2809 283.402 76.9009 283.413C76.5209 283.423 76.1409 283.434 75.7662 283.434C74.6777 283.434 73.5892 283.434 72.5008 283.434Z" fill="#FFFFFF"/>
<path d="M114.523 283.396C122.934 283.398 131.346 283.397 139.755 283.389C139.531 283.376 139.304 283.37 139.072 283.37C130.892 283.387 122.708 283.394 114.523 283.396Z" fill="#FFFFFF"/>
<path d="M120.575 299.937C121.98 299.938 123.385 299.94 124.79 299.943C125.149 299.943 125.508 299.944 125.867 299.945C125.55 299.907 125.221 299.89 124.878 299.895C123.445 299.916 122.011 299.929 120.575 299.937Z" fill="#FFFFFF"/>
<path d="M227.645 357.157C229.079 358.096 230.513 359.037 231.944 359.978C232.109 360.093 232.291 360.191 232.475 360.29C233.01 360.578 233.557 360.872 233.7 361.605H234.15C234.406 361.405 234.659 361.198 234.911 360.991C235.415 360.578 235.919 360.164 236.462 359.807C255.148 347.515 273.845 335.235 292.538 322.957C299.951 318.087 307.364 313.219 314.776 308.35C318.822 305.695 322.868 303.041 326.893 300.365C326.954 300.325 327.027 300.288 327.101 300.251C327.417 300.093 327.774 299.914 327.514 299.274C327.273 299.267 327.026 299.258 326.774 299.249C326.223 299.23 325.654 299.21 325.095 299.21H312.249C312.808 299.21 313.378 299.23 313.929 299.249C314.18 299.258 314.427 299.267 314.669 299.274C314.928 299.914 314.572 300.093 314.256 300.251C314.181 300.288 314.109 300.325 314.048 300.365C310.023 303.041 305.977 305.695 301.93 308.35C294.518 313.219 287.104 318.089 279.69 322.958C262.341 334.353 244.989 345.751 227.645 357.157Z" fill="#FFFFFF"/>
<path d="M288.334 299.21C287.585 299.21 286.815 299.21 286.066 299.167C285.913 299.167 285.768 299.094 285.562 298.99C285.452 298.934 285.324 298.87 285.167 298.803C285.787 298.354 286.214 298.055 286.642 297.756L286.644 297.754C287.46 297.204 288.28 296.659 289.1 296.115C291.054 294.816 293.008 293.518 294.908 292.146C296.132 291.252 297.392 290.87 298.863 290.807C294.733 290.804 290.603 290.801 286.473 290.797C284.803 290.797 283.411 291.161 282.063 292.146C280.162 293.518 278.209 294.816 276.254 296.115C275.435 296.659 274.615 297.204 273.799 297.754C273.371 298.054 272.943 298.353 272.322 298.803C272.478 298.87 272.606 298.934 272.716 298.99C272.923 299.094 273.067 299.167 273.221 299.167C273.97 299.21 274.74 299.21 275.489 299.21H288.334Z" fill="#FFFFFF"/>
<path d="M357.98 290.819C361.655 290.819 365.33 290.819 369.004 290.819C369.203 290.819 369.405 290.821 369.607 290.824C370.014 290.828 370.424 290.833 370.824 290.819C371.188 290.797 371.574 290.776 371.937 290.69C372.12 290.654 372.286 290.54 372.45 290.428C372.479 290.408 372.508 290.389 372.537 290.369C373.693 289.642 374.828 288.914 375.962 288.165C376.032 288.123 376.057 288.035 376.095 287.895C376.115 287.821 376.139 287.733 376.176 287.63C375.888 287.622 375.603 287.612 375.32 287.602C374.783 287.584 374.255 287.565 373.736 287.565H360.89C361.409 287.565 361.937 287.584 362.474 287.602C362.757 287.612 363.043 287.622 363.331 287.63C363.294 287.733 363.27 287.821 363.25 287.895C363.211 288.035 363.187 288.123 363.117 288.165C361.982 288.914 360.848 289.642 359.692 290.369C359.663 290.389 359.634 290.408 359.605 290.428C359.441 290.54 359.274 290.654 359.092 290.69C358.735 290.774 358.357 290.797 357.999 290.818L357.98 290.819Z" fill="#FFFFFF"/>
<path d="M311.992 287.565C311.841 287.552 311.689 287.493 311.451 287.402C311.32 287.352 311.163 287.291 310.965 287.223C311.26 287.038 311.536 286.867 311.798 286.705C312.505 286.267 313.106 285.895 313.684 285.489C314.887 284.614 316.184 284.267 317.613 284.183C313.584 284.182 309.556 284.179 305.527 284.162C303.793 284.162 302.251 284.462 300.838 285.489C300.26 285.895 299.659 286.267 298.952 286.705C298.691 286.867 298.414 287.038 298.119 287.223C298.317 287.291 298.475 287.352 298.606 287.402C298.843 287.493 298.995 287.552 299.147 287.565C299.647 287.58 300.157 287.575 300.664 287.57C300.916 287.568 301.167 287.565 301.416 287.565H311.992Z" fill="#FFFFFF"/>
<path d="M337.239 284.184C341.312 284.184 345.385 284.188 349.458 284.205C350.871 284.205 352.07 283.905 353.269 283.113C361.564 277.62 369.882 272.16 378.198 266.702C381.386 264.61 384.573 262.518 387.759 260.424C388.074 260.205 388.383 259.987 388.709 259.756C388.957 259.581 389.215 259.398 389.493 259.204C389.5 258.922 389.51 258.641 389.519 258.36C389.538 257.809 389.557 257.26 389.557 256.721V221.552C389.557 221.394 389.562 221.238 389.567 221.083C389.576 220.779 389.585 220.481 389.557 220.182C389.531 219.928 389.483 219.68 389.43 219.409C389.394 219.224 389.356 219.029 389.322 218.813C388.954 218.805 388.601 218.794 388.257 218.784C387.658 218.766 387.088 218.748 386.517 218.748H373.672C374.242 218.748 374.813 218.766 375.411 218.784C375.755 218.794 376.109 218.805 376.476 218.813C376.511 219.029 376.549 219.224 376.585 219.409C376.638 219.68 376.686 219.928 376.712 220.182C376.74 220.481 376.731 220.779 376.721 221.083C376.716 221.238 376.712 221.394 376.712 221.552V256.721C376.712 257.26 376.693 257.809 376.674 258.36C376.664 258.641 376.655 258.922 376.647 259.204C376.369 259.398 376.112 259.581 375.863 259.756C375.538 259.987 375.229 260.205 374.913 260.424C371.725 262.519 368.536 264.612 365.346 266.706C357.033 272.163 348.717 277.621 340.423 283.113C339.406 283.785 338.388 284.103 337.239 284.184Z" fill="#FFFFFF"/>
<path d="M326.379 218.748C326.074 218.718 325.769 218.655 325.455 218.59C325.329 218.564 325.202 218.537 325.073 218.513C324.923 217.293 324.859 216.18 325.137 215.002C325.503 214.864 325.875 214.797 326.248 214.767H315.225C315.027 214.767 314.827 214.762 314.626 214.756C313.849 214.735 313.057 214.713 312.292 215.002C312.014 216.18 312.078 217.293 312.228 218.513C312.357 218.537 312.484 218.564 312.61 218.59C312.923 218.655 313.229 218.718 313.534 218.748C313.992 218.777 314.451 218.767 314.902 218.758C315.126 218.753 315.348 218.748 315.568 218.748H326.379Z" fill="#FFFFFF"/>
<path d="M374.25 214.767H387.095C387.547 214.767 387.999 214.734 388.483 214.699C388.777 214.677 389.083 214.655 389.407 214.639C389.43 214.408 389.459 214.194 389.486 213.991C389.534 213.628 389.578 213.298 389.578 212.969C389.578 212.073 389.557 211.171 389.536 210.267C389.514 209.357 389.493 208.445 389.493 207.532C389.493 207.179 389.548 206.815 389.611 206.4C389.635 206.236 389.661 206.065 389.685 205.884H376.84C376.816 206.065 376.79 206.236 376.765 206.4C376.702 206.815 376.647 207.179 376.647 207.532C376.647 208.445 376.669 209.357 376.69 210.267C376.712 211.171 376.733 212.073 376.733 212.969C376.733 213.298 376.689 213.628 376.641 213.991C376.613 214.194 376.585 214.408 376.562 214.639C376.237 214.655 375.932 214.677 375.637 214.699C375.154 214.734 374.702 214.767 374.25 214.767Z" fill="#FFFFFF"/>
<path d="M425.573 205.884H424.132C424.613 205.875 425.093 205.877 425.573 205.884Z" fill="#FFFFFF"/>
<path d="M429.244 205.884H430.17C430.926 205.884 431.683 205.889 432.439 205.893C433.952 205.903 435.465 205.913 436.978 205.884C437.707 205.87 438.437 205.883 439.165 205.896C440.682 205.924 442.196 205.951 443.7 205.734C444.064 203.508 443.85 200.982 443.122 198.906C443.013 198.9 442.898 198.892 442.779 198.884C442.481 198.864 442.159 198.842 441.838 198.842H428.992C429.314 198.842 429.636 198.864 429.934 198.884C430.052 198.892 430.167 198.9 430.277 198.906C431.005 200.982 431.219 203.508 430.855 205.734C430.319 205.811 429.782 205.858 429.244 205.884Z" fill="#FFFFFF"/>
<path d="M389.82 198.842C389.515 198.799 389.206 198.717 388.893 198.563C388.765 197.622 388.636 196.658 388.529 195.695C388.487 195.246 388.449 194.791 388.412 194.336C388.374 193.881 388.337 193.426 388.294 192.977C388.203 192.035 388.109 191.092 388.015 190.15C387.528 185.291 387.041 180.43 387.095 175.553C387.116 173.498 386.303 172.043 384.633 171.037C383.52 170.373 382.385 169.752 381.207 169.281C379.452 168.597 377.654 167.933 375.834 167.483C370.882 166.281 365.891 165.157 360.916 164.036L360.163 163.866C359.268 163.663 358.372 163.471 357.475 163.278C354.679 162.677 351.882 162.077 349.158 161.169C348.216 160.848 347.317 160.463 346.439 160.035C345.84 159.735 345.198 159.307 345.219 158.536C345.241 157.744 345.968 157.423 346.589 157.188C348.152 156.61 349.715 156.053 351.321 155.625C358.193 153.827 365.215 152.714 372.237 151.601C377.402 150.78 382.574 150.009 387.745 149.239C391.469 148.684 395.193 148.129 398.913 147.555C401.313 147.186 403.713 146.818 406.112 146.451C414.694 145.137 423.273 143.823 431.84 142.418C435.181 141.87 438.468 141.089 441.766 140.305C442.588 140.109 443.411 139.913 444.235 139.721C445.327 139.486 446.398 139.036 447.404 138.544C448.689 137.923 448.731 136.96 447.532 136.147C447.04 135.804 446.483 135.526 445.927 135.312C445.006 134.948 444.086 134.627 443.144 134.349C439.552 133.306 435.884 132.571 432.219 131.836C431.142 131.62 430.066 131.404 428.992 131.181C428.112 130.997 427.233 130.813 426.354 130.629C420.794 129.468 415.248 128.309 409.703 127.071C406.534 126.365 403.43 125.401 400.454 124.031C399.212 123.475 398.014 122.833 397.007 121.891C396.13 121.056 395.659 120.071 395.766 118.851C395.794 118.452 395.842 118.052 395.889 117.652C395.913 117.453 395.937 117.253 395.958 117.053C396.009 116.676 396.063 116.3 396.117 115.925C396.246 115.024 396.375 114.128 396.451 113.222C396.686 110.268 395.616 107.892 393.154 106.201C392.825 105.973 392.478 105.763 392.131 105.554C391.957 105.45 391.784 105.345 391.612 105.238C390.396 104.469 389.179 103.701 387.962 102.933C382.779 99.6603 377.601 96.3911 372.451 93.0798C369.366 91.0956 366.314 89.0553 363.264 87.0158C362.102 86.239 360.94 85.4624 359.777 84.6891C359.701 84.6373 359.621 84.5893 359.539 84.5405C359.18 84.3271 358.798 84.1002 358.728 83.4904C358.905 83.4773 359.073 83.4623 359.237 83.4477C359.609 83.4144 359.955 83.3834 360.312 83.3834H366.885C367.031 83.3701 367.186 83.3154 367.385 83.2451C367.506 83.2023 367.643 83.1537 367.805 83.1051C365.75 81.3071 363.781 80.0442 361.126 80.4723H350.294C352.004 80.7645 353.459 81.7921 354.96 83.1051C354.798 83.1537 354.661 83.2023 354.539 83.2451C354.341 83.3154 354.186 83.3701 354.04 83.3834H347.467C347.11 83.3834 346.763 83.4144 346.391 83.4477C346.228 83.4623 346.059 83.4773 345.883 83.4904C345.952 84.1002 346.334 84.3271 346.693 84.5405C346.775 84.5893 346.856 84.6373 346.932 84.6891C348.095 85.4624 349.257 86.239 350.418 87.0158C353.469 89.0553 356.521 91.0956 359.606 93.0798C364.756 96.3911 369.934 99.6603 375.117 102.933C376.333 103.701 377.55 104.469 378.767 105.238C378.938 105.345 379.112 105.45 379.285 105.554C379.633 105.763 379.98 105.973 380.308 106.201C382.77 107.892 383.841 110.268 383.605 113.222C383.53 114.128 383.401 115.024 383.271 115.925C383.217 116.3 383.163 116.676 383.113 117.053C383.092 117.253 383.068 117.453 383.044 117.652C382.996 118.052 382.949 118.452 382.92 118.851C382.813 120.071 383.284 121.056 384.162 121.891C385.168 122.833 386.367 123.475 387.609 124.031C390.585 125.401 393.689 126.365 396.857 127.071C402.403 128.309 407.949 129.468 413.508 130.629C414.387 130.813 415.267 130.997 416.147 131.181C417.221 131.404 418.297 131.62 419.374 131.836C423.039 132.571 426.707 133.306 430.298 134.349C431.24 134.627 432.161 134.948 433.081 135.312C433.638 135.526 434.195 135.804 434.687 136.147C435.886 136.96 435.843 137.923 434.559 138.544C433.552 139.036 432.482 139.486 431.39 139.721C430.566 139.913 429.743 140.109 428.921 140.305C425.623 141.089 422.336 141.87 418.994 142.418C410.428 143.823 401.849 145.137 393.267 146.451C390.867 146.818 388.467 147.186 386.067 147.555C382.347 148.129 378.624 148.684 374.9 149.239C369.729 150.009 364.557 150.78 359.392 151.601C352.37 152.714 345.348 153.827 338.475 155.625C336.87 156.053 335.307 156.61 333.744 157.188C333.123 157.423 332.395 157.744 332.374 158.536C332.352 159.307 332.995 159.735 333.594 160.035C334.472 160.463 335.371 160.848 336.313 161.169C339.036 162.077 341.833 162.677 344.63 163.278C345.526 163.471 346.423 163.663 347.317 163.866L348.071 164.036C353.045 165.157 358.036 166.281 362.988 167.483C364.808 167.933 366.607 168.597 368.362 169.281C369.54 169.752 370.674 170.373 371.788 171.037C373.457 172.043 374.271 173.498 374.25 175.553C374.196 180.43 374.683 185.291 375.169 190.15C375.264 191.092 375.358 192.035 375.448 192.977C375.491 193.426 375.529 193.881 375.566 194.336C375.604 194.791 375.641 195.246 375.684 195.695C375.791 196.658 375.919 197.622 376.048 198.563C376.796 198.929 377.518 198.895 378.225 198.861C378.428 198.851 378.63 198.842 378.831 198.842H389.82Z" fill="#FFFFFF"/>
<path d="M302.572 80.4723C302.5 80.462 302.428 80.4519 302.356 80.4418C301.676 80.3468 300.989 80.2508 300.389 79.98C296.549 78.2184 292.722 76.4181 288.899 74.6192C287.797 74.1011 286.696 73.5831 285.595 73.0662C285.559 73.0483 285.522 73.031 285.483 73.0133C285.2 72.8834 284.878 72.7351 284.953 72.1886C285.766 72.1672 286.58 72.1458 287.394 72.1458H274.548C273.735 72.1458 272.921 72.1672 272.108 72.1886C272.032 72.7351 272.355 72.8834 272.638 73.0133C272.676 73.031 272.714 73.0483 272.75 73.0662C273.851 73.5831 274.952 74.1011 276.053 74.6192C279.877 76.4181 283.704 78.2184 287.543 79.98C288.143 80.2508 288.83 80.3468 289.51 80.4418C289.583 80.4519 289.655 80.462 289.727 80.4723C290.125 80.5292 290.523 80.5105 290.928 80.4916C291.132 80.482 291.338 80.4723 291.547 80.4723H302.572Z" fill="#FFFFFF"/>
<path d="M357.781 72.1458H370.46C370.478 72.1458 370.496 72.146 370.514 72.1461C370.781 72.1487 371.081 72.1516 371.081 71.6107C370.051 70.937 369.017 70.2546 367.979 69.5688C366.212 68.4023 364.431 67.2261 362.625 66.0668C362.218 65.8099 361.64 65.7243 361.126 65.6601C360.697 65.6141 360.257 65.623 359.822 65.6317C359.649 65.6352 359.477 65.6387 359.306 65.6387C356.36 65.6387 353.411 65.6339 350.461 65.6292C345.64 65.6214 340.817 65.6136 335.999 65.6266C336.538 65.6274 337.077 65.6283 337.616 65.6292C340.565 65.6339 343.514 65.6387 346.461 65.6387C346.631 65.6387 346.804 65.6352 346.977 65.6317C347.412 65.623 347.852 65.6141 348.281 65.6601C348.794 65.7243 349.372 65.8099 349.779 66.0668C351.586 67.2261 353.367 68.4023 355.133 69.5688C356.172 70.2546 357.205 70.937 358.236 71.6107C358.236 72.0768 358.013 72.1391 357.781 72.1458Z" fill="#FFFFFF"/>
<path d="M332.072 65.6214C331.01 65.5471 330.064 65.2403 329.162 64.5684C328.315 63.9362 327.428 63.3639 326.542 62.792C325.838 62.3377 325.135 61.8838 324.452 61.4005C323.489 60.6941 322.461 60.4587 321.284 60.4587C317.658 60.473 314.022 60.4682 310.39 60.4634C309.809 60.4627 309.228 60.4619 308.647 60.4612C309.738 60.4884 310.701 60.7361 311.607 61.4005C312.289 61.8838 312.993 62.3377 313.697 62.792C314.583 63.3639 315.47 63.9362 316.317 64.5684C317.409 65.3818 318.565 65.6601 319.914 65.6387C323.963 65.6191 328.017 65.6174 332.072 65.6214Z" fill="#FFFFFF"/>
<path d="M307.958 60.4605C306.955 60.4594 305.951 60.4587 304.949 60.4587H297.006C296.235 60.4587 295.529 60.3302 294.865 59.8807C292.189 58.1041 289.508 56.3329 286.826 54.5616C284.145 52.7904 281.463 51.0191 278.787 49.2425C277.631 48.4719 277.588 47.9368 278.338 46.2886H265.492C264.743 47.9368 264.786 48.4719 265.942 49.2425C268.618 51.0191 271.299 52.7904 273.981 54.5616C276.662 56.3329 279.344 58.1041 282.02 59.8807C282.684 60.3302 283.39 60.4587 284.161 60.4587H292.104C293.915 60.4587 295.73 60.4611 297.545 60.4634C301.017 60.468 304.492 60.4725 307.958 60.4605Z" fill="#FFFFFF"/>
<path d="M287.548 46.2886H299.383C299.486 46.2886 299.595 46.302 299.705 46.3157C300.099 46.3644 300.521 46.4165 300.838 45.8819C300.733 45.8041 300.629 45.7264 300.525 45.649C300.144 45.3644 299.77 45.0855 299.383 44.8331C281.425 32.9346 263.445 21.0576 245.466 9.18058L245.453 9.17239C244.4 8.47634 243.347 7.78189 242.295 7.08773C239.495 5.2416 236.699 3.39752 233.914 1.53082C233.815 1.46005 233.702 1.39864 233.589 1.33673C233.187 1.11777 232.774 0.892591 232.908 0.225117C232.951 -0.0103374 232.223 -0.0959592 232.223 0.139495C232.24 0.92365 231.718 1.22548 231.212 1.51848C231.096 1.58539 230.981 1.65184 230.874 1.72347C229.293 2.7831 227.71 3.83973 226.127 4.89455C227.233 5.62631 228.341 6.35686 229.449 7.08773C230.502 7.78189 231.555 8.47634 232.608 9.17239L232.62 9.18058C250.6 21.0576 268.579 32.9346 286.537 44.8331C286.924 45.0855 287.298 45.3644 287.68 45.649C287.783 45.7264 287.888 45.8041 287.993 45.8819C287.86 46.1063 287.708 46.2273 287.548 46.2886Z" fill="#FFFFFF"/>
<path d="M216.98 30.8556H217.216C217.162 30.8535 217.108 30.8542 217.056 30.8549C217.03 30.8553 217.005 30.8556 216.98 30.8556Z" fill="#FFFFFF"/>
<path d="M205.219 39.1607H203.471C203.667 39.1607 203.863 39.1643 204.059 39.1678C204.449 39.1747 204.837 39.1817 205.219 39.1607Z" fill="#FFFFFF"/>
<path d="M148.45 39.1607C148.108 39.1607 147.76 39.1495 147.41 39.1381C146.704 39.1153 145.99 39.0922 145.302 39.1607H148.45Z" fill="#FFFFFF"/>
<path d="M184.16 42.5641H188.013C187.157 42.5499 186.301 42.5546 185.444 42.5594C185.016 42.5618 184.588 42.5641 184.16 42.5641Z" fill="#FFFFFF"/>
<path d="M188.687 42.5641H190.72C190.153 42.5392 189.618 42.5485 189.099 42.5576C188.961 42.56 188.823 42.5624 188.687 42.5641Z" fill="#FFFFFF"/>
<path d="M185.172 45.8302C164.23 45.8177 143.299 45.8177 122.352 45.8177C122.334 45.8177 122.316 45.8177 122.298 45.8178C143.077 45.8183 163.846 45.8213 184.631 45.8391C184.813 45.8391 184.993 45.8363 185.172 45.8302Z" fill="#FFFFFF"/>
<path d="M120.532 45.8177V45.8177C120.408 45.8104 120.288 45.8106 120.171 45.8177C120.292 45.8177 120.412 45.8177 120.532 45.8177Z" fill="#FFFFFF"/>
<path d="M110.273 52.7743C110.653 52.8266 111.046 52.8092 111.441 52.7918C111.638 52.7831 111.836 52.7743 112.033 52.7743H110.273Z" fill="#FFFFFF"/>
<path d="M115.63 89.2269H116.119C116.009 89.2094 115.895 89.2155 115.786 89.2213C115.732 89.2242 115.68 89.2269 115.63 89.2269Z" fill="#FFFFFF"/>
<path d="M105.525 95.9359C92.9268 95.9267 80.3288 95.9267 67.7308 95.9267H67.6951C67.6097 95.9267 67.5244 95.9268 67.4391 95.927C79.963 95.928 92.4869 95.9321 105.011 95.9481C105.185 95.9481 105.356 95.9441 105.525 95.9359Z" fill="#FFFFFF"/>
<path d="M64.2986 95.9268C64.2961 95.9268 64.2936 95.9268 64.291 95.9267C64.1365 95.9201 63.9845 95.9201 63.8347 95.9268C63.9893 95.9268 64.144 95.9268 64.2986 95.9268Z" fill="#FFFFFF"/>
<path d="M52.4519 102.862H58.8104C57.3974 102.833 55.9844 102.843 54.5714 102.852C53.8649 102.857 53.1584 102.862 52.4519 102.862Z" fill="#FFFFFF"/>
<path d="M59.8815 102.862H63.6352C62.6698 102.793 61.7101 102.818 60.758 102.842C60.4651 102.85 60.1729 102.857 59.8815 102.862Z" fill="#FFFFFF"/>
<path d="M226.242 221.462H235.397V99.3912H296.432V221.462C296.432 254.014 280.156 270.29 247.604 270.29H226.242V221.462ZM220.138 270.29H198.776C166.224 270.29 149.948 254.014 149.948 221.462V99.3912H210.983V221.462H220.138V270.29Z" fill="#FFFFFF"/>
<path d="M352.969 165.25V134H372.5C393.333 134 403.75 144.417 403.75 165.25V173.062C403.75 193.896 393.333 204.312 372.5 204.312H352.969V173.062H364.688V165.25H352.969ZM349.062 243.375H310V134H349.062V243.375Z" fill="#FFFFFF"/>
<path d="M450.625 243.375H454.531V245.328H450.625V243.375ZM454.531 165.25V134H474.062C494.896 134 505.312 144.417 505.312 165.25V212.125C505.312 232.958 494.896 243.375 474.062 243.375H454.531V212.125H466.25V165.25H454.531ZM450.625 243.375H411.562V134H450.625V243.375Z" fill="#FFFFFF"/>
<path d="M561.797 204.312L569.531 235.562H546.484L544.531 243.375H505.469L536.719 134H544.531L558.125 189.156L554.297 204.312H561.797ZM548.516 134H583.594L614.844 243.375H575.781L548.516 134Z" fill="#FFFFFF"/>
<path d="M606.719 165.25V134H684.844V165.25H606.719ZM665.312 169.156V243.375H626.25V169.156H665.312Z" fill="#FFFFFF"/>
<path d="M731.719 243.375H692.656V134H731.719V243.375ZM735.625 134H770.781V165.25H735.625V134ZM735.625 173.062H770.781V204.312H735.625V173.062ZM735.625 212.125H770.781V243.375H735.625V212.125Z" fill="#FFFFFF"/>
<path d="M316.024 282.375H313.428V266.975H319.566C321.385 266.975 322.855 267.404 323.977 268.262C325.099 269.12 325.66 270.444 325.66 272.233C325.66 273.26 325.458 274.191 325.055 275.027C324.652 275.856 323.992 276.519 323.075 277.018C322.18 277.495 321.011 277.733 319.566 277.733H316.024V282.375ZM319.456 275.401C321.935 275.401 323.174 274.367 323.174 272.299C323.174 270.304 321.935 269.307 319.456 269.307H316.024V275.401H319.456Z" fill="#FFFFFF"/>
<path d="M343.787 282.375H332.523V266.975H343.523V269.307H335.119V273.487H342.643V275.797H335.119V280.043H343.787V282.375Z" fill="#FFFFFF"/>
<path d="M364.077 282.375H361.129L358.313 277.711C358.166 277.726 356.714 277.733 353.957 277.733V282.375H351.361V266.975H357.609C358.738 266.975 359.772 267.147 360.711 267.492C361.657 267.837 362.42 268.405 362.999 269.197C363.542 269.967 363.813 270.979 363.813 272.233C363.813 274.712 362.75 276.376 360.623 277.227L364.077 282.375ZM357.609 275.401C360.102 275.401 361.349 274.367 361.349 272.299C361.349 270.304 360.102 269.307 357.609 269.307H353.957V275.401H357.609Z" fill="#FFFFFF"/>
<path d="M374.255 282.375H371.659V266.975H374.255V282.375Z" fill="#FFFFFF"/>
<path d="M385.294 282.375H382.698V266.975H393.038L393.016 269.307H385.294V273.751H392.29V276.061H385.294V282.375Z" fill="#FFFFFF"/>
<path d="M406.242 265.699L404.152 265.479L406.33 262.443L408.926 263.543L406.242 265.699ZM411.016 282.375H399.752V266.975H410.752V269.307H402.348V273.487H409.872V275.797H402.348V280.043H411.016V282.375Z" fill="#FFFFFF"/>
<path d="M431.306 282.375H428.358L425.542 277.711C425.395 277.726 423.943 277.733 421.186 277.733V282.375H418.59V266.975H424.838C425.967 266.975 427.001 267.147 427.94 267.492C428.886 267.837 429.648 268.405 430.228 269.197C430.77 269.967 431.042 270.979 431.042 272.233C431.042 274.712 429.978 276.376 427.852 277.227L431.306 282.375ZM424.838 275.401C427.331 275.401 428.578 274.367 428.578 272.299C428.578 270.304 427.331 269.307 424.838 269.307H421.186V275.401H424.838Z" fill="#FFFFFF"/>
<path d="M441.484 282.375H438.888V266.975H441.484V282.375Z" fill="#FFFFFF"/>
<path d="M456.659 282.573C454.415 282.573 452.519 281.807 450.972 280.274C449.425 278.741 448.651 276.868 448.651 274.653C448.651 272.438 449.428 270.576 450.983 269.065C452.538 267.554 454.459 266.799 456.747 266.799C458.918 266.799 460.868 267.606 462.599 269.219L461.081 271.111C459.776 269.791 458.346 269.131 456.791 269.131C455.236 269.131 453.931 269.644 452.875 270.671C451.819 271.698 451.291 273.018 451.291 274.631C451.291 275.335 451.416 276.017 451.665 276.677C451.914 277.33 452.274 277.916 452.743 278.437C453.22 278.958 453.795 279.372 454.47 279.68C455.152 279.981 455.926 280.131 456.791 280.131C458.331 280.131 459.761 279.515 461.081 278.283L462.621 279.999C460.846 281.715 458.859 282.573 456.659 282.573Z" fill="#FFFFFF"/>
<path d="M476.381 282.573C474.078 282.573 472.142 281.807 470.573 280.274C469.004 278.741 468.219 276.868 468.219 274.653C468.219 272.424 469 270.557 470.562 269.054C472.124 267.551 474.064 266.799 476.381 266.799C478.698 266.799 480.638 267.558 482.2 269.076C483.762 270.594 484.543 272.453 484.543 274.653C484.543 276.868 483.758 278.741 482.189 280.274C480.62 281.807 478.684 282.573 476.381 282.573ZM476.403 280.219C477.078 280.219 477.741 280.098 478.394 279.856C479.047 279.614 479.633 279.258 480.154 278.789C480.682 278.32 481.1 277.74 481.408 277.051C481.723 276.354 481.881 275.555 481.881 274.653C481.881 273.069 481.338 271.756 480.253 270.715C479.168 269.674 477.884 269.153 476.403 269.153C474.922 269.153 473.627 269.67 472.52 270.704C471.413 271.738 470.859 273.054 470.859 274.653C470.859 276.252 471.416 277.579 472.531 278.635C473.646 279.691 474.936 280.219 476.403 280.219Z" fill="#FFFFFF"/>
<path d="M496.545 282.529C494.067 282.529 491.969 281.708 490.253 280.065L491.375 277.821C493.135 279.346 494.873 280.109 496.589 280.109C497.572 280.109 498.298 279.922 498.767 279.548C499.237 279.174 499.471 278.716 499.471 278.173C499.471 277.425 499.127 276.868 498.437 276.501C498.1 276.318 497.748 276.16 497.381 276.028C497.015 275.896 496.567 275.76 496.039 275.621C494.661 275.225 493.707 274.866 493.179 274.543C492.446 274.088 491.955 273.656 491.705 273.245C491.339 272.629 491.155 271.91 491.155 271.089C491.155 269.71 491.691 268.643 492.761 267.888C493.832 267.133 495.167 266.755 496.765 266.755C498.833 266.755 500.63 267.29 502.155 268.361L501.077 270.649C499.42 269.696 497.917 269.219 496.567 269.219C495.849 269.219 495.251 269.347 494.774 269.604C494.298 269.861 494.059 270.282 494.059 270.869C494.059 271.456 494.32 271.947 494.84 272.343C495.361 272.732 496.23 273.084 497.447 273.399C499.222 273.868 500.513 274.484 501.319 275.247C501.935 275.863 502.28 276.794 502.353 278.041C502.353 279.038 502.093 279.867 501.572 280.527C500.986 281.238 500.249 281.752 499.361 282.067C498.481 282.375 497.543 282.529 496.545 282.529Z" fill="#FFFFFF"/>
<path d="M527.101 282.375H524.527V277.337L518.785 266.975H521.403L525.803 274.477L530.115 266.975H532.755L527.101 277.249V282.375Z" fill="#FFFFFF"/>
<path d="M556.922 282.573C554.678 282.573 552.783 281.807 551.235 280.274C549.688 278.741 548.914 276.868 548.914 274.653C548.914 272.438 549.692 270.576 551.246 269.065C552.801 267.554 554.722 266.799 557.01 266.799C559.181 266.799 561.132 267.606 562.862 269.219L561.344 271.111C560.039 269.791 558.609 269.131 557.054 269.131C555.5 269.131 554.194 269.644 553.138 270.671C552.082 271.698 551.554 273.018 551.554 274.631C551.554 275.335 551.679 276.017 551.928 276.677C552.178 277.33 552.537 277.916 553.006 278.437C553.483 278.958 554.059 279.372 554.733 279.68C555.415 279.981 556.189 280.131 557.054 280.131C558.594 280.131 560.024 279.515 561.344 278.283L562.884 279.999C561.11 281.715 559.122 282.573 556.922 282.573Z" fill="#FFFFFF"/>
<path d="M576.644 282.573C574.342 282.573 572.406 281.807 570.836 280.274C569.267 278.741 568.482 276.868 568.482 274.653C568.482 272.424 569.263 270.557 570.825 269.054C572.387 267.551 574.327 266.799 576.644 266.799C578.962 266.799 580.901 267.558 582.463 269.076C584.025 270.594 584.806 272.453 584.806 274.653C584.806 276.868 584.022 278.741 582.452 280.274C580.883 281.807 578.947 282.573 576.644 282.573ZM576.666 280.219C577.341 280.219 578.005 280.098 578.657 279.856C579.31 279.614 579.897 279.258 580.417 278.789C580.945 278.32 581.363 277.74 581.671 277.051C581.987 276.354 582.144 275.555 582.144 274.653C582.144 273.069 581.602 271.756 580.516 270.715C579.431 269.674 578.148 269.153 576.666 269.153C575.185 269.153 573.891 269.67 572.783 270.704C571.676 271.738 571.122 273.054 571.122 274.653C571.122 276.252 571.68 277.579 572.794 278.635C573.909 279.691 575.2 280.219 576.666 280.219Z" fill="#FFFFFF"/>
<path d="M608.601 282.375H606.203L606.181 270.825L601.121 280.769H599.471L594.367 270.825V282.375H591.969V266.975H594.983L600.307 277.271L605.587 266.975H608.601V282.375Z" fill="#FFFFFF"/>
<path d="M619.654 282.375H617.058V266.975H623.196C625.015 266.975 626.485 267.404 627.607 268.262C628.729 269.12 629.29 270.444 629.29 272.233C629.29 273.26 629.089 274.191 628.685 275.027C628.282 275.856 627.622 276.519 626.705 277.018C625.811 277.495 624.641 277.733 623.196 277.733H619.654V282.375ZM623.086 275.401C625.565 275.401 626.804 274.367 626.804 272.299C626.804 270.304 625.565 269.307 623.086 269.307H619.654V275.401H623.086Z" fill="#FFFFFF"/>
<path d="M643.147 282.573C640.844 282.573 638.908 281.807 637.339 280.274C635.77 278.741 634.985 276.868 634.985 274.653C634.985 272.424 635.766 270.557 637.328 269.054C638.89 267.551 640.83 266.799 643.147 266.799C645.464 266.799 647.404 267.558 648.966 269.076C650.528 270.594 651.309 272.453 651.309 274.653C651.309 276.868 650.524 278.741 648.955 280.274C647.386 281.807 645.45 282.573 643.147 282.573ZM643.169 280.219C643.844 280.219 644.507 280.098 645.16 279.856C645.813 279.614 646.399 279.258 646.92 278.789C647.448 278.32 647.866 277.74 648.174 277.051C648.489 276.354 648.647 275.555 648.647 274.653C648.647 273.069 648.104 271.756 647.019 270.715C645.934 269.674 644.65 269.153 643.169 269.153C641.688 269.153 640.393 269.67 639.286 270.704C638.179 271.738 637.625 273.054 637.625 274.653C637.625 276.252 638.182 277.579 639.297 278.635C640.412 279.691 641.702 280.219 643.169 280.219Z" fill="#FFFFFF"/>
<path d="M671.825 282.375H669.273L661.067 271.287V282.375H658.471V266.975H661.023L669.273 278.107V266.975H671.825V282.375Z" fill="#FFFFFF"/>
<path d="M691.559 282.375H680.295V266.975H691.295V269.307H682.891V273.487H690.415V275.797H682.891V280.043H691.559V282.375Z" fill="#FFFFFF"/>
<path d="M712.487 282.375H709.935L701.729 271.287V282.375H699.133V266.975H701.685L709.935 278.107V266.975H712.487V282.375Z" fill="#FFFFFF"/>
<path d="M726.589 282.375H723.993V269.307H719.131V266.975H731.473V269.307H726.589V282.375Z" fill="#FFFFFF"/>
<path d="M749.361 282.375H738.097V266.975H749.097V269.307H740.693V273.487H748.217V275.797H740.693V280.043H749.361V282.375Z" fill="#FFFFFF"/>
<path d="M761.774 282.529C759.296 282.529 757.198 281.708 755.482 280.065L756.604 277.821C758.364 279.346 760.102 280.109 761.818 280.109C762.801 280.109 763.527 279.922 763.996 279.548C764.466 279.174 764.7 278.716 764.7 278.173C764.7 277.425 764.356 276.868 763.666 276.501C763.329 276.318 762.977 276.16 762.61 276.028C762.244 275.896 761.796 275.76 761.268 275.621C759.89 275.225 758.936 274.866 758.408 274.543C757.675 274.088 757.184 273.656 756.934 273.245C756.568 272.629 756.384 271.91 756.384 271.089C756.384 269.71 756.92 268.643 757.99 267.888C759.061 267.133 760.396 266.755 761.994 266.755C764.062 266.755 765.859 267.29 767.384 268.361L766.306 270.649C764.649 269.696 763.146 269.219 761.796 269.219C761.078 269.219 760.48 269.347 760.003 269.604C759.527 269.861 759.288 270.282 759.288 270.869C759.288 271.456 759.549 271.947 760.069 272.343C760.59 272.732 761.459 273.084 762.676 273.399C764.451 273.868 765.742 274.484 766.548 275.247C767.164 275.863 767.509 276.794 767.582 278.041C767.582 279.038 767.322 279.867 766.801 280.527C766.215 281.238 765.478 281.752 764.59 282.067C763.71 282.375 762.772 282.529 761.774 282.529Z" fill="#FFFFFF"/>
</svg>
